<svg xmlns="http://www.w3.org/2000/svg" viewBox="0 0 455.94 697.3"><defs><style>.cls-1{fill:#fbe8f2;}.cls-2{fill:#f7c9da;}.cls-3{fill:#fff;}.cls-4{fill:#bde2ec;}</style></defs><title>Asset 2</title><g id="Layer_2" data-name="Layer 2"><g id="Calque_1" data-name="Calque 1"><polygon class="cls-1" points="0 224.18 231.18 0 455.36 224.18 0 224.18"/><polygon class="cls-2" points="0 224.18 455.36 224.18 231.18 0 0 224.18"/><polygon class="cls-3" points="7.59 244.7 7.59 693.06 455.94 697.3 455.94 248.95 7.59 244.7"/><polygon class="cls-4" points="7.59 693.06 455.94 697.3 455.94 248.95 7.59 244.7 7.59 693.06"/><path class="cls-3" d="M148.88,432.27a21.36,21.36,0,1,0-21.36-21.36,21.36,21.36,0,0,0,21.36,21.36"/><path class="cls-3" d="M329.44,432.27a21.36,21.36,0,1,0-21.36-21.36,21.36,21.36,0,0,0,21.36,21.36"/><path class="cls-3" d="M166.21,480A75.79,75.79,0,0,0,312,486.89q1-3.1,1.8-6.31s-126-.93-147.55-.6"/></g></g></svg>